# xmcd
#
# Track frame offsets:
# 150
# 21701
# 38630
# 57892
# 77496
# 91070
# 105624
# 126168
# 142847
# 164480
# 182544
# 200754
# 220542
# 240665
# 260432
# 275767
# 293525
# 309369
#
# Disc length: 4386 seconds
#
#
# Revision: 0
# Processed by: cddbd v1.5.1PL2 Copyright (c) Steve Scherf et al.
# Submitted via: FreeRIP 2.944 
#
DISCID=f7112012
DTITLE=MARCO ANTONIO SOLIS  - LA HISTORIA CONTINUA 
DYEAR=1900
DGENRE=Ballad
TTITLE0=M.A.S  01
TTITLE1=M.A.S. 02
TTITLE2=M.A.S.03
TTITLE3=M.A.S.04
TTITLE4=M.A.S. 05
TTITLE5=M.A.S.06
TTITLE6=M.A.S.07
TTITLE7=M.A.S.08
TTITLE8=M.A.S.09
TTITLE9=M.A.S.10
TTITLE10=M.A.S.11
TTITLE11=M.A.S 12
TTITLE12=M.A.S.13
TTITLE13=M.A.S.14
TTITLE14=M.A.S.15
TTITLE15=M.A.S.16
TTITLE16=M.AS.17
TTITLE17=M.A.S.18
EXTD=
EXTT0=
EXTT1=
EXTT2=
EXTT3=
EXTT4=
EXTT5=
EXTT6=
EXTT7=
EXTT8=
EXTT9=
EXTT10=
EXTT11=
EXTT12=
EXTT13=
EXTT14=
EXTT15=
EXTT16=
EXTT17=
PLAYORDER=
